<svg xmlns="http://www.w3.org/2000/svg" xml:space="preserve" width="4399px" height="3257px" version="1.1" style="shape-rendering:geometricPrecision; text-rendering:geometricPrecision; image-rendering:optimizeQuality; fill-rule:evenodd; clip-rule:evenodd"
viewBox="0 0 995.13 736.67"
>
<path fill="#5B95F5" class="fil0" d="M426.42 705.25l0.06 26.21c-4.29,1.51 -9.83,0.54 -14.5,0.45 1.35,-4.25 4.92,-9.71 6.93,-13.62l7.51 -13.04zm568.71 -506.94l0 26.82c-1.02,17.19 -4.01,33.91 -9.05,49.21 -7.38,22.41 -17.36,41.22 -31.07,59.4 -4.59,6.1 -8.37,11.21 -13.35,16.8l-21.8 23.43c-0.14,0.14 -0.34,0.34 -0.47,0.48l-7.44 6.69c-1.7,1.69 -2.55,2.45 -4.06,4.43l-7.71 7.36c-1.47,1.35 -2.33,2.34 -3.76,3.78l-52.78 52.77c-7.44,7.38 -14.56,16.23 -19.41,25.82 -13.44,26.65 -14.36,47.69 -11.11,76.8l1.88 29.22c0.38,3.36 -0.09,6.79 0.19,10.17 0.3,3.74 0.89,4.56 0.89,9.48 -7.93,0.17 -17.64,1.95 -26.38,1.88 -13.93,-0.11 -47.52,3.72 -66.94,3.74 -5.83,0.01 -7.29,0.97 -13.16,0.97 1.34,2.8 3.76,34.42 3.76,40.52l70.68 0c13.44,0 23.4,0.95 36.75,0.95l0 84.81c-12.73,0 -22.04,0.94 -34.86,0.94l-74.45 0 0 -46.17 -10.62 18.59c-12.36,16.67 -31.41,29.47 -55.35,29.47l-165.85 -0.95c-14.43,0 -25.44,-0.94 -39.58,-0.94 -66.66,0 -132.78,-1.88 -199.78,-1.88l-240.3 0 0 -2.83 125.33 0c0,-9.83 3.77,-18.92 3.77,-29.21 8.8,0.19 18.86,3.58 27.33,3.77 -1.6,-2.19 -9.32,-7.47 -12.11,-9.56 -4.11,-3.08 -8.33,-6.57 -12.39,-9.29 0.24,-10.55 4.33,-29.27 6.06,-41.06 1.06,-7.24 2.16,-14.09 3.08,-20.48 0.96,-6.65 1.73,-13.59 3.11,-19.5 9.35,0.2 13.45,4.87 15.33,12.94 4.3,18.35 -7.13,27.75 9.4,44.32 5.93,5.94 9.43,6.72 16.73,10.59 0.77,-9.25 14.7,-67.55 16.97,-77.28 6.91,3.32 67.77,21.14 81.63,25.8 8.88,2.99 72.87,21.94 81.39,26.03 0.38,-4.55 4.38,-14.52 6.01,-19.43l43.36 -128.15c4.54,-12.99 6.63,-24.8 15.4,-33.6 15.69,-15.75 33.9,-10.57 36.17,-12.84 1.16,-1.16 1.67,-19.31 1.76,-22.74 0.43,-17.72 4.73,-51.21 4.73,-68.77l32.99 0c3.69,0 6.77,-8.99 7.53,-12.25 -2.75,-1.84 -2.23,-2.29 -5.75,-3.68l-45.13 -14.23c2.12,-4.01 4.78,-10.14 6.46,-14.27 2.08,-5.11 3.94,-8.26 6.19,-13.6 3.5,-8.33 3.52,-4.78 1.25,-15.24 -1.04,-4.8 -2.33,-11.07 -3.52,-16.07 13.95,-1.39 10.82,-2.53 13.18,1.7 1.7,3.07 -1.75,0.16 1.88,2.83 0.62,-2.67 3.49,-8.88 4.7,-11.33 1.77,-3.57 3.05,-6.55 4.74,-10.34 3.75,-8.44 7.62,-13.29 7.54,-23.55 -0.26,-31.03 6.41,-28.1 7.49,-38.69 6.66,-65.45 27.47,-128.39 86.1,-159.85 33.55,-18.01 69.06,-25.4 107.39,-30.2 18.35,-2.29 39.65,-3.74 58.2,-2.2 10.22,0.84 19.93,0.22 30.06,1.04 43.35,3.49 89.66,17.77 123.28,45.4 2.93,2.4 5.5,4.2 8.42,6.65 16.72,14.09 30.57,31.83 41.8,50.56 16.1,26.87 25.32,60.44 27.27,94.02zm-281.65 501.6l-0.03 -48.91 88.08 0.08 0 81.4c-7.77,1.19 -73.84,0.43 -87.22,0.43l-0.83 -33zm-358.18 -21.7l35.61 0.11c0.16,14.43 -11.63,30.28 -23.24,34.02 -16.97,5.47 -36.29,-1.88 -38.96,18.77 -24.68,-0.62 -49.56,-0.08 -74.27,-0.07 -12.09,0 -24.53,-0.9 -35.74,-1.11 -12.4,-0.24 -25.17,0.15 -37.63,0.16 0.64,-9.97 10.5,-41.81 12.23,-55.16 -2.83,-0.81 -2.72,-0.2 -5.6,-1.76l16.52 -74.17c2.56,-0.4 117.86,37.08 139.53,43.72 7.47,2.3 13.7,5.14 20.94,6.49l-9.39 29zm337.25 -225.19c2.93,20.69 3.79,42.66 6.3,63.44 2.81,23.22 3.02,46.08 5.32,64.49 0.67,5.42 0.35,10.45 1.06,15.82 0.96,7.34 -0.6,4.76 1.72,11.52 2.31,6.72 3.48,28.42 3.4,36.02 -0.29,28.54 4.36,37.88 -9.45,58.15 -26.73,39.22 -63.85,32.36 -106.27,31.37 -23.04,-0.54 -46.1,0.27 -69.13,-0.36 -23.12,-0.63 -46.5,0.09 -69.32,-0.65l-7.51 -54.5 33.17 0.01 -4.19 -112.08c4.85,0.17 8.66,7.78 12.94,14.37l67.54 98.34c2.01,2.85 3.8,5.27 5.78,8.29 0.75,1.14 1.48,2.55 2.56,4.11 1.71,2.44 1.19,2.75 4.68,2.99 -2.82,-5.93 -7.74,-12.06 -11.29,-17.17 -3.99,-5.73 -7.53,-11.09 -11.51,-16.76l-57.52 -83.82c-1.67,-2.39 -7.23,-11.59 -9.18,-12.62 -5.01,-2.61 -6.17,2.93 -6.08,6.77 0.06,2.63 0.31,4.84 0.26,7.6 -0.26,16.87 2.81,48.43 2.86,68.76 0.02,9.73 1.1,18.78 0.85,28.21l-121.41 0c18.89,-51.27 39.3,-116.35 57.4,-169.59 3.01,-8.88 6.13,-19.81 9.72,-27.96 3.65,-8.26 11,-15.24 19.81,-18.82 28.77,-11.68 47.2,13.44 72.71,34.22l103.38 85.35c-0.93,-2.03 -1.55,-1.98 -3.34,-3.49 -2.44,-2.07 -2.27,-2.47 -5.19,-3.89 -0.03,-19.74 38.97,-108.49 47.06,-113.42 0.37,-5.05 0.5,-1.83 -0.97,-2.97l-0.98 1.01c-0.41,0.45 -0.99,1.06 -1.38,1.51 -11.29,13.04 -39.68,51.87 -51.97,67.69l-18.23 23.07c-9.85,-7.5 -49.58,-42.71 -56.39,-47.12l51.12 -64.44c3.71,-4.66 15.78,-17.83 16.81,-23.19 -2.5,0.79 -1.51,0.4 -3.18,1.94 -0.35,0.33 -1.73,2.1 -2.11,2.6 -1.44,1.89 -2.69,3.47 -4.12,5.32 -3.12,4.04 -5.39,6.62 -8.39,10.4l-50.21 62.68 19.15 -113.67c21.54,6.69 45.76,-7.5 58.05,-25.69 1.6,-2.37 2.82,-5.32 5.52,-6.78 10.66,-4.67 30.32,4.31 36.95,7.65 18.98,9.56 37.06,31.08 39.33,53 1.38,13.32 3.6,29.42 3.87,42.29zm-165.77 44.22c-2.79,-1.25 -11,-8.58 -13.68,-10.8 -2.69,-2.22 -3.74,-3.31 -6.53,-5.67 -2.51,-2.13 -4.28,-3.45 -7.14,-6.02 -13.32,-11.97 -15.15,-14.5 -30.05,-20.04 -0.28,-10.27 4.41,-54.11 4.71,-67.64 0.09,-4.1 0.42,-20.07 2.35,-21.96 1.39,-1.62 -0.38,-0.63 2.38,-1.14l69.96 -0.06c1.11,4.83 -8.92,57.25 -10.45,66.76 -1.51,9.4 -9.46,62.42 -11.55,66.57zm22.65 -152.78c-0.69,4.09 -6.69,13.47 -8.68,17.03l-30.04 -0.04 5.81 -12.09c-1.78,-3.04 -11.68,-11.74 -14.9,-14.47 -2.83,-2.4 -4.8,-4.22 -7.37,-6.67 -2.27,-2.17 -5.7,-4.18 -7.55,-6.59 -2.91,-3.79 -9.89,-44.4 -10.13,-47.52l6.86 -0.15c3.17,6.47 5.36,29.98 9.52,35.64l-0.61 -33.61 7.55 0.28 7.1 37.44c4.94,-5.38 10.55,-15.85 15.36,-22.8l10.44 6.62c-3.56,6.44 -11.47,13.66 -13.71,19.95 6.9,4.74 25.76,24.67 30.35,26.98zm44.49 -113.82l10.91 22.76c2.04,-1.34 1.06,-0.78 2.77,-2.3 12.82,-11.33 28.74,-3.77 10.9,21.29 -8.67,12.18 -17.06,26.5 -16.45,47.79 0.29,10.31 3.51,18.14 5.8,26.51 2.39,8.7 -18.43,26.71 -30.72,31.38 -5.99,2.28 -19.41,5.35 -26.79,2.49 -2.01,-3.96 1.61,-14.02 2.05,-19.1l-8.46 0.03 5 -9.77c4.38,-8.06 18.27,-8.32 20.3,-22.34 -3.91,1.04 -2.51,1.5 -6.04,3.68 -15.62,9.66 -22.78,0.93 -31.26,-7.66 -3.41,-3.46 -6.52,-5.15 -9.58,-9.03 4.77,-6.41 10.14,-12.82 14.02,-20.05 -4.94,-2.66 -9.53,-5.78 -14.3,-8.39l-5.19 7.26c-3.74,-15.49 -4.13,-43.97 -0.34,-58l77.38 -6.55zm154.31 -145.14c24.6,0 40.69,2.25 61.54,11.02 6.71,2.82 15.1,7.7 20.45,11.59 34.67,25.13 50.88,64.3 50.88,108.38 0,36.34 -11.86,59.81 -31.62,86.17 -12.21,16.29 -25.12,26.4 -36.23,39.15l-21.43 21.92c-37.7,37.69 -89.76,86.63 -89.76,147.71 -2.96,-3.4 -1.54,-4.4 -2.57,-12.51 -2.48,-19.55 -6.63,-84.7 -9.85,-96.63 -4.97,-18.38 -17.74,-33.01 -32.42,-42.97 -9.52,-6.46 -21.71,-11.86 -34.32,-11.86l49.11 -15.91c4.11,-1.26 12.9,-4.49 16.85,-4.82 -0.1,-4.44 -11.1,-32.52 -13.45,-38.37 -5.11,-12.71 -9.09,-24.88 -14.15,-37.68l-13.98 -37.85c-2.5,-6.09 -5.25,-11.89 -8.91,-17.48 -8.28,-12.65 -8.85,-7.97 -6.45,-16.94 6.2,-23.18 14.87,-39.33 31.6,-56.07 0.14,-0.14 0.33,-0.34 0.47,-0.47 0.14,-0.14 0.34,-0.33 0.48,-0.47l7.81 -7.26c11.63,-8.67 19.16,-13.09 33.14,-18.69 6.92,-2.77 12.2,-4.55 20,-6.39 6.07,-1.43 15.27,-3.57 22.81,-3.57zm-232.63 105.39c-0.03,-22.26 9.49,-56.38 15.67,-73.58 7.64,-21.24 20.17,-41.6 34.09,-55.41 15.4,-15.28 31.11,-26.79 53.64,-35.92 68.23,-27.66 161.82,-31.97 227.81,-6.12 40.77,15.97 76.12,45.59 97.58,81.56 35.7,59.87 43.19,144.38 2.88,211.36 -22.05,36.66 -53.68,64.89 -84.01,95.07 -7.79,7.75 -14.9,14.79 -22.76,22.47l-21.98 22.32c-12.74,14.28 -25.88,36.75 -27.88,61.66 -2.15,26.86 5.46,68.68 3.3,85.31l-84.15 5.24c-4.37,-39.62 -10.75,-84.32 -0.85,-121.4 13.68,-51.29 50.4,-82.3 83.99,-116.72 5.6,-5.74 10.67,-12.22 16.39,-17.55l33.08 -33.8c15.5,-17.2 30.32,-38.97 36.48,-62.52 10.07,-38.46 1.83,-85.27 -14.36,-111.22 -8.94,-14.32 -18.42,-25.39 -31.89,-34.98 -13.25,-9.43 -27.89,-16.08 -46.58,-20.35 -18.51,-4.22 -41.3,-5.07 -61.82,-2.23 -29.18,4.04 -50.6,11.92 -72.25,28.58 -16.57,12.75 -35.61,38.54 -39.46,59.35 -8.64,-1.94 -14.45,-5.68 -26.34,-6.53 -21.62,-1.55 -46.86,2.7 -62.74,17.57 -3,2.81 -5.36,5.56 -7.84,7.84zm-219.87 265.03c5.09,2.35 12.08,7.11 17.14,10.28 5.57,3.49 11.15,7.15 16.83,10.46 -3.16,7.23 -10.16,14.76 -12.88,21.95 -5.06,-2.06 -12.53,-7.45 -17.4,-10.45l-12.78 -7.92c-1.09,-0.64 -1.16,-0.7 -2.46,-1.4 -2.24,-1.22 -0.5,-0.34 -2.85,-1.48 -2.19,4.86 -7.22,12.09 -10.14,16.92 -2.59,4.28 -8.49,14.43 -11.1,17l-21.41 -13.03c4.1,-8.9 19.04,-28.52 20.56,-34.96 -6.24,-4.19 -30.66,-17.79 -33.79,-21.58 3.7,-5.69 10.34,-15.48 13.13,-21.59l34.44 21.23c3.64,-2.88 7.96,-11.97 10.78,-16.41 3.49,-5.49 7.33,-12.67 11.16,-17.51 7.54,3.89 13.77,9.25 21.46,12.7 -0.75,2.99 -8.13,14.22 -10.29,17.63 -2.71,4.27 -9.38,13.37 -10.4,18.16zm-22.45 -17.98c-3.41,-0.8 -14.49,-8.11 -17.9,-10.37 -3.13,-2.07 -14.93,-9.67 -17.91,-10.36 -1.75,3.31 -3.33,5.36 -5.36,8.77l-8.59 14.02c-1.19,2.39 -1.05,3.22 -2.12,5.43l-5.6 9.47c4.56,1.22 28.55,18.54 33.92,19.79 -6.29,11.9 -8.29,12.6 -15.38,27.03 -1.65,3.36 -3.58,5.45 -5.35,8.78 4.36,2.3 7.89,5.03 12.2,7.59 3.6,2.14 10.29,6.8 13.25,7.49 1.42,-5.32 18.67,-26.2 20.73,-33.93 2.68,0.72 5.89,3.26 8.43,4.77l26.44 15.97 17.86 -27.38c1.88,-3.11 4.4,-6.07 4.75,-10.32 -3.44,-0.8 -13.26,-7.34 -16.78,-9.61l-17.14 -10.18c3.03,-5.73 20.28,-30.42 20.73,-35.81 -7.2,-3.81 -21.68,-13.98 -26.39,-15.08 -1.5,5.65 -18.25,28.18 -19.79,33.93zm367.52 -268.57c0,7.87 0.26,12.21 5.78,18.72l1.35 1.48c21.53,21.67 57.3,-10.62 34.86,-34.86 -13.17,-14.23 -41.99,-5.92 -41.99,14.66zm-288.36 143.24l-23.86 -12.91c-3.05,-1.76 -4.63,-3.88 -8.18,-2.17 0.94,3.53 0.35,1.84 3.05,3.54l30.88 16.25c1.17,-2.45 1.75,-4.49 3.13,-7.24 1.43,-2.86 2.33,-4.64 3.78,-7.53 1.43,-2.86 2.39,-4.64 3.78,-7.52 1.39,-2.91 2.14,-5.26 3.43,-7.88 2.16,-4.4 13.77,-26.52 14.15,-31.09l-3.77 0 -26.39 56.55zm66.47 405.68c-2.01,3.91 -5.58,9.37 -6.93,13.62 4.67,0.09 10.21,1.06 14.5,-0.45l-0.06 -26.21 -7.51 13.04zm122.12 -425.59l12.58 -1.77c-0.25,-0.12 -0.58,-0.59 -0.73,-0.36l-3.44 -0.74c-1.88,-0.08 -3.73,0.26 -5.58,0.5 -0.09,-7.31 2.4,-27.16 1.74,-30.46 -0.41,-2.09 -0.11,-0.81 -0.92,-2.11 -1.23,2.07 -1.2,5.62 -1.56,7.98l-2.09 26.96z"/>
</svg>
